<svg xmlns="http://www.w3.org/2000/svg" xmlns:xlink="http://www.w3.org/1999/xlink" width="500" zoomAndPan="magnify" viewBox="0 0 375 374.999991" height="500" preserveAspectRatio="xMidYMid meet" version="1.0"><defs><g/><clipPath id="d46e7ab88a"><path d="M 13.15625 83 L 90 83 L 90 291 L 13.15625 291 Z M 13.15625 83 " clip-rule="nonzero"/></clipPath><clipPath id="d7af6ab418"><path d="M 285 83 L 361.84375 83 L 361.84375 291 L 285 291 Z M 285 83 " clip-rule="nonzero"/></clipPath></defs><g fill="#18835a" fill-opacity="1"><g transform="translate(138.462101, 204.522183)"><g><path d="M 36.796875 -14.125 L 16.671875 -14.125 L 12.859375 0 L -0.09375 0 L 19.234375 -61.984375 L 34.59375 -61.984375 L 53.96875 0 L 40.5625 0 Z M 18.921875 -23.484375 L 34.515625 -23.484375 L 26.71875 -52.65625 Z M 18.921875 -23.484375 "/></g></g></g><g fill="#18835a" fill-opacity="1"><g transform="translate(182.732195, 204.522183)"><g><path d="M 46.390625 -61.984375 L 46.390625 -21.78125 C 46.390625 -18.5 45.898438 -15.453125 44.921875 -12.640625 C 43.953125 -9.828125 42.484375 -7.382812 40.515625 -5.3125 C 38.546875 -3.238281 36.070312 -1.625 33.09375 -0.46875 C 30.125 0.675781 26.640625 1.25 22.640625 1.25 C 18.929688 1.25 15.617188 0.742188 12.703125 -0.265625 C 9.796875 -1.285156 7.039062 -2.707031 4.4375 -4.53125 L 9.375 -12.375 C 11.664062 -10.820312 13.789062 -9.753906 15.75 -9.171875 C 17.707031 -8.585938 19.789062 -8.296875 22 -8.296875 C 25.53125 -8.296875 28.394531 -9.429688 30.59375 -11.703125 C 32.789062 -13.972656 33.890625 -17.332031 33.890625 -21.78125 L 33.890625 -52.625 L 15.015625 -52.625 L 15.015625 -61.984375 Z M 46.390625 -61.984375 "/></g></g></g><g clip-path="url(#d46e7ab88a)"><path fill="#050a30" d="M 88.183594 284.296875 C 78.472656 283.144531 67.261719 286.941406 58.347656 281.59375 C 49.683594 276.398438 50.5625 264.113281 50.960938 255.445312 C 51.859375 235.871094 56.589844 212.429688 43.039062 195.761719 C 39.824219 191.8125 35.75 188.601562 31.191406 186.59375 C 34.128906 185.042969 36.839844 183.019531 39.195312 180.691406 C 46.117188 173.847656 49.902344 164.621094 51.394531 155.128906 C 53.078125 144.421875 52.011719 133.636719 51.214844 122.902344 C 50.804688 117.378906 50.476562 111.824219 50.71875 106.285156 C 50.902344 102.28125 51.375 97.488281 54.183594 94.359375 C 57.445312 90.726562 62.996094 89.808594 67.644531 89.703125 C 73.890625 89.5625 80.058594 90.535156 86.300781 89.792969 C 88.757812 89.5 90.847656 83.449219 87.421875 83.855469 C 77.636719 85.015625 67.570312 81.777344 58.214844 86.054688 C 49.21875 90.160156 46.339844 99.816406 45.933594 108.933594 C 45.4375 120.054688 47.210938 131.113281 47.496094 142.210938 C 47.746094 152.003906 46.878906 162.449219 41.753906 171.054688 C 36.816406 179.355469 27.289062 184.984375 17.496094 183.621094 C 15.378906 183.324219 13.152344 187.445312 14.1875 189.050781 C 14.242188 189.980469 14.757812 190.636719 15.96875 190.46875 C 24.8125 189.246094 33.464844 194.046875 38.917969 200.746094 C 45.222656 208.507812 47.3125 218.722656 47.652344 228.476562 C 48.035156 239.375 46.335938 250.207031 46.066406 261.082031 C 45.847656 269.894531 45.992188 280.871094 53.925781 286.589844 C 63.191406 293.273438 75.457031 289.097656 85.890625 290.335938 C 88.449219 290.648438 91.125 284.648438 88.183594 284.296875 Z M 88.183594 284.296875 " fill-opacity="1" fill-rule="nonzero"/></g><g clip-path="url(#d7af6ab418)"><path fill="#050a30" d="M 286.816406 284.296875 C 296.527344 283.144531 307.738281 286.941406 316.652344 281.59375 C 325.316406 276.398438 324.4375 264.113281 324.039062 255.445312 C 323.140625 235.871094 318.410156 212.429688 331.960938 195.761719 C 335.175781 191.8125 339.25 188.601562 343.808594 186.59375 C 340.871094 185.042969 338.160156 183.019531 335.804688 180.691406 C 328.882812 173.847656 325.097656 164.621094 323.605469 155.128906 C 321.921875 144.421875 322.988281 133.636719 323.785156 122.902344 C 324.191406 117.378906 324.523438 111.824219 324.28125 106.285156 C 324.097656 102.28125 323.625 97.488281 320.816406 94.359375 C 317.554688 90.726562 312.003906 89.808594 307.355469 89.703125 C 301.109375 89.5625 294.941406 90.535156 288.699219 89.792969 C 286.242188 89.5 284.152344 83.449219 287.578125 83.855469 C 297.363281 85.015625 307.429688 81.777344 316.785156 86.054688 C 325.78125 90.160156 328.660156 99.816406 329.066406 108.933594 C 329.5625 120.054688 327.789062 131.113281 327.503906 142.210938 C 327.25 152.003906 328.121094 162.449219 333.242188 171.054688 C 338.183594 179.355469 347.710938 184.984375 357.503906 183.621094 C 359.621094 183.324219 361.847656 187.445312 360.8125 189.050781 C 360.757812 189.980469 360.242188 190.636719 359.03125 190.46875 C 350.1875 189.246094 341.535156 194.046875 336.082031 200.746094 C 329.777344 208.507812 327.6875 218.722656 327.347656 228.476562 C 326.964844 239.375 328.664062 250.207031 328.933594 261.082031 C 329.152344 269.894531 329.007812 280.871094 321.074219 286.589844 C 311.808594 293.273438 299.542969 289.097656 289.109375 290.335938 C 286.550781 290.648438 283.875 284.648438 286.816406 284.296875 Z M 286.816406 284.296875 " fill-opacity="1" fill-rule="nonzero"/></g><g fill="#050a30" fill-opacity="1"><g transform="translate(88.034836, 242.704363)"><g><path d="M 15.671875 -19.40625 L 16.75 -17.71875 L 4.828125 -10.296875 L 16.75 -2.78125 L 15.515625 -1.25 L 3.078125 -9.046875 L 3.078125 -11.625 Z M 15.671875 -19.40625 "/></g></g></g><g fill="#050a30" fill-opacity="1"><g transform="translate(104.316288, 242.704363)"><g><path d="M 3.65625 3.3125 L 1.96875 2.578125 L 16.15625 -26.609375 L 17.8125 -25.765625 Z M 3.65625 3.3125 "/></g></g></g><g fill="#050a30" fill-opacity="1"><g transform="translate(120.59774, 242.704363)"><g><path d="M 15.703125 -11.4375 C 15.703125 -13.550781 15.46875 -15.226562 15 -16.46875 C 14.539062 -17.71875 13.9375 -18.648438 13.1875 -19.265625 C 12.4375 -19.878906 11.628906 -20.285156 10.765625 -20.484375 C 9.910156 -20.679688 9.082031 -20.78125 8.28125 -20.78125 L 5.15625 -20.78125 L 5.15625 -1.8125 L 8.328125 -1.8125 C 9.160156 -1.8125 10.007812 -1.941406 10.875 -2.203125 C 11.738281 -2.472656 12.535156 -2.953125 13.265625 -3.640625 C 13.992188 -4.335938 14.582031 -5.3125 15.03125 -6.5625 C 15.476562 -7.820312 15.703125 -9.445312 15.703125 -11.4375 Z M 18 -11.4375 C 18 -9.039062 17.691406 -7.09375 17.078125 -5.59375 C 16.460938 -4.09375 15.648438 -2.9375 14.640625 -2.125 C 13.640625 -1.3125 12.554688 -0.753906 11.390625 -0.453125 C 10.222656 -0.148438 9.085938 0 7.984375 0 L 3.0625 0 L 3.0625 -22.65625 L 7.625 -22.65625 C 8.914062 -22.65625 10.175781 -22.507812 11.40625 -22.21875 C 12.632812 -21.925781 13.742188 -21.378906 14.734375 -20.578125 C 15.734375 -19.785156 16.523438 -18.65625 17.109375 -17.1875 C 17.703125 -15.71875 18 -13.800781 18 -11.4375 Z M 18 -11.4375 "/></g></g></g><g fill="#050a30" fill-opacity="1"><g transform="translate(136.879191, 242.704363)"><g><path d="M 5.09375 -7.828125 C 5.125 -6.378906 5.382812 -5.191406 5.875 -4.265625 C 6.363281 -3.335938 7.007812 -2.648438 7.8125 -2.203125 C 8.613281 -1.765625 9.488281 -1.546875 10.4375 -1.546875 C 11.34375 -1.546875 12.148438 -1.675781 12.859375 -1.9375 C 13.566406 -2.207031 14.3125 -2.613281 15.09375 -3.15625 L 16.171875 -1.609375 C 15.367188 -0.992188 14.460938 -0.515625 13.453125 -0.171875 C 12.453125 0.160156 11.472656 0.328125 10.515625 0.328125 C 8.921875 0.328125 7.554688 -0.0390625 6.421875 -0.78125 C 5.285156 -1.53125 4.414062 -2.578125 3.8125 -3.921875 C 3.207031 -5.273438 2.90625 -6.847656 2.90625 -8.640625 C 2.90625 -10.398438 3.210938 -11.953125 3.828125 -13.296875 C 4.441406 -14.648438 5.296875 -15.707031 6.390625 -16.46875 C 7.484375 -17.238281 8.753906 -17.625 10.203125 -17.625 C 11.609375 -17.625 12.8125 -17.28125 13.8125 -16.59375 C 14.8125 -15.914062 15.578125 -14.953125 16.109375 -13.703125 C 16.640625 -12.453125 16.90625 -10.96875 16.90625 -9.25 C 16.90625 -8.945312 16.898438 -8.675781 16.890625 -8.4375 C 16.878906 -8.207031 16.867188 -8.003906 16.859375 -7.828125 Z M 10.25 -15.703125 C 8.851562 -15.703125 7.679688 -15.207031 6.734375 -14.21875 C 5.785156 -13.238281 5.25 -11.722656 5.125 -9.671875 L 14.96875 -9.671875 C 14.925781 -11.703125 14.46875 -13.210938 13.59375 -14.203125 C 12.726562 -15.203125 11.613281 -15.703125 10.25 -15.703125 Z M 10.25 -15.703125 "/></g></g></g><g fill="#050a30" fill-opacity="1"><g transform="translate(153.160645, 242.704363)"><g><path d="M 17.46875 -17.3125 L 11.03125 0 L 8.671875 0 L 2.3125 -17.3125 L 4.4375 -17.3125 L 9.9375 -2.078125 L 15.328125 -17.3125 Z M 17.46875 -17.3125 "/></g></g></g><g fill="#050a30" fill-opacity="1"><g transform="translate(169.442099, 242.704363)"><g><path d="M 5.09375 -7.828125 C 5.125 -6.378906 5.382812 -5.191406 5.875 -4.265625 C 6.363281 -3.335938 7.007812 -2.648438 7.8125 -2.203125 C 8.613281 -1.765625 9.488281 -1.546875 10.4375 -1.546875 C 11.34375 -1.546875 12.148438 -1.675781 12.859375 -1.9375 C 13.566406 -2.207031 14.3125 -2.613281 15.09375 -3.15625 L 16.171875 -1.609375 C 15.367188 -0.992188 14.460938 -0.515625 13.453125 -0.171875 C 12.453125 0.160156 11.472656 0.328125 10.515625 0.328125 C 8.921875 0.328125 7.554688 -0.0390625 6.421875 -0.78125 C 5.285156 -1.53125 4.414062 -2.578125 3.8125 -3.921875 C 3.207031 -5.273438 2.90625 -6.847656 2.90625 -8.640625 C 2.90625 -10.398438 3.210938 -11.953125 3.828125 -13.296875 C 4.441406 -14.648438 5.296875 -15.707031 6.390625 -16.46875 C 7.484375 -17.238281 8.753906 -17.625 10.203125 -17.625 C 11.609375 -17.625 12.8125 -17.28125 13.8125 -16.59375 C 14.8125 -15.914062 15.578125 -14.953125 16.109375 -13.703125 C 16.640625 -12.453125 16.90625 -10.96875 16.90625 -9.25 C 16.90625 -8.945312 16.898438 -8.675781 16.890625 -8.4375 C 16.878906 -8.207031 16.867188 -8.003906 16.859375 -7.828125 Z M 10.25 -15.703125 C 8.851562 -15.703125 7.679688 -15.207031 6.734375 -14.21875 C 5.785156 -13.238281 5.25 -11.722656 5.125 -9.671875 L 14.96875 -9.671875 C 14.925781 -11.703125 14.46875 -13.210938 13.59375 -14.203125 C 12.726562 -15.203125 11.613281 -15.703125 10.25 -15.703125 Z M 10.25 -15.703125 "/></g></g></g><g fill="#050a30" fill-opacity="1"><g transform="translate(185.723553, 242.704363)"><g><path d="M 9.65625 -24.3125 L 9.65625 -3.921875 C 9.65625 -3.023438 9.941406 -2.390625 10.515625 -2.015625 C 11.097656 -1.640625 11.828125 -1.453125 12.703125 -1.453125 C 13.253906 -1.453125 13.773438 -1.503906 14.265625 -1.609375 C 14.753906 -1.722656 15.253906 -1.878906 15.765625 -2.078125 L 16.359375 -0.5 C 15.921875 -0.289062 15.375 -0.101562 14.71875 0.0625 C 14.0625 0.238281 13.328125 0.328125 12.515625 0.328125 C 11.148438 0.328125 9.988281 -0.0390625 9.03125 -0.78125 C 8.082031 -1.519531 7.609375 -2.566406 7.609375 -3.921875 L 7.609375 -22.53125 L 2.234375 -22.53125 L 2.234375 -24.3125 Z M 9.65625 -24.3125 "/></g></g></g><g fill="#050a30" fill-opacity="1"><g transform="translate(202.005007, 242.704363)"><g><path d="M 9.9375 -17.625 C 11.519531 -17.625 12.835938 -17.253906 13.890625 -16.515625 C 14.953125 -15.773438 15.742188 -14.734375 16.265625 -13.390625 C 16.785156 -12.054688 17.046875 -10.476562 17.046875 -8.65625 C 17.046875 -6.9375 16.773438 -5.398438 16.234375 -4.046875 C 15.691406 -2.703125 14.890625 -1.632812 13.828125 -0.84375 C 12.773438 -0.0625 11.460938 0.328125 9.890625 0.328125 C 8.304688 0.328125 6.984375 -0.046875 5.921875 -0.796875 C 4.859375 -1.546875 4.0625 -2.59375 3.53125 -3.9375 C 3 -5.289062 2.734375 -6.851562 2.734375 -8.625 C 2.734375 -10.394531 3.003906 -11.953125 3.546875 -13.296875 C 4.085938 -14.648438 4.890625 -15.707031 5.953125 -16.46875 C 7.023438 -17.238281 8.351562 -17.625 9.9375 -17.625 Z M 9.9375 -15.828125 C 8.3125 -15.828125 7.078125 -15.238281 6.234375 -14.0625 C 5.398438 -12.882812 4.984375 -11.070312 4.984375 -8.625 C 4.984375 -6.226562 5.394531 -4.4375 6.21875 -3.25 C 7.039062 -2.070312 8.265625 -1.484375 9.890625 -1.484375 C 11.515625 -1.484375 12.738281 -2.070312 13.5625 -3.25 C 14.382812 -4.4375 14.796875 -6.238281 14.796875 -8.65625 C 14.796875 -11.082031 14.382812 -12.882812 13.5625 -14.0625 C 12.75 -15.238281 11.539062 -15.828125 9.9375 -15.828125 Z M 9.9375 -15.828125 "/></g></g></g><g fill="#050a30" fill-opacity="1"><g transform="translate(218.286454, 242.704363)"><g><path d="M 10.796875 -17.625 C 12.347656 -17.625 13.578125 -17.25 14.484375 -16.5 C 15.398438 -15.75 16.054688 -14.703125 16.453125 -13.359375 C 16.847656 -12.015625 17.046875 -10.445312 17.046875 -8.65625 C 17.046875 -6.914062 16.804688 -5.367188 16.328125 -4.015625 C 15.847656 -2.671875 15.113281 -1.609375 14.125 -0.828125 C 13.144531 -0.0546875 11.894531 0.328125 10.375 0.328125 C 8.40625 0.328125 6.832031 -0.359375 5.65625 -1.734375 L 5.65625 6.609375 L 3.609375 6.890625 L 3.609375 -17.3125 L 5.296875 -17.3125 L 5.515625 -14.75 C 6.140625 -15.632812 6.894531 -16.332031 7.78125 -16.84375 C 8.675781 -17.363281 9.679688 -17.625 10.796875 -17.625 Z M 10.4375 -15.875 C 9.363281 -15.875 8.421875 -15.550781 7.609375 -14.90625 C 6.796875 -14.269531 6.144531 -13.585938 5.65625 -12.859375 L 5.65625 -3.890625 C 6.132812 -3.171875 6.757812 -2.597656 7.53125 -2.171875 C 8.300781 -1.742188 9.132812 -1.53125 10.03125 -1.53125 C 11.644531 -1.53125 12.84375 -2.117188 13.625 -3.296875 C 14.40625 -4.472656 14.796875 -6.269531 14.796875 -8.6875 C 14.796875 -10.226562 14.640625 -11.53125 14.328125 -12.59375 C 14.023438 -13.65625 13.550781 -14.46875 12.90625 -15.03125 C 12.269531 -15.59375 11.445312 -15.875 10.4375 -15.875 Z M 10.4375 -15.875 "/></g></g></g><g fill="#050a30" fill-opacity="1"><g transform="translate(234.567901, 242.704363)"><g><path d="M 5.09375 -7.828125 C 5.125 -6.378906 5.382812 -5.191406 5.875 -4.265625 C 6.363281 -3.335938 7.007812 -2.648438 7.8125 -2.203125 C 8.613281 -1.765625 9.488281 -1.546875 10.4375 -1.546875 C 11.34375 -1.546875 12.148438 -1.675781 12.859375 -1.9375 C 13.566406 -2.207031 14.3125 -2.613281 15.09375 -3.15625 L 16.171875 -1.609375 C 15.367188 -0.992188 14.460938 -0.515625 13.453125 -0.171875 C 12.453125 0.160156 11.472656 0.328125 10.515625 0.328125 C 8.921875 0.328125 7.554688 -0.0390625 6.421875 -0.78125 C 5.285156 -1.53125 4.414062 -2.578125 3.8125 -3.921875 C 3.207031 -5.273438 2.90625 -6.847656 2.90625 -8.640625 C 2.90625 -10.398438 3.210938 -11.953125 3.828125 -13.296875 C 4.441406 -14.648438 5.296875 -15.707031 6.390625 -16.46875 C 7.484375 -17.238281 8.753906 -17.625 10.203125 -17.625 C 11.609375 -17.625 12.8125 -17.28125 13.8125 -16.59375 C 14.8125 -15.914062 15.578125 -14.953125 16.109375 -13.703125 C 16.640625 -12.453125 16.90625 -10.96875 16.90625 -9.25 C 16.90625 -8.945312 16.898438 -8.675781 16.890625 -8.4375 C 16.878906 -8.207031 16.867188 -8.003906 16.859375 -7.828125 Z M 10.25 -15.703125 C 8.851562 -15.703125 7.679688 -15.207031 6.734375 -14.21875 C 5.785156 -13.238281 5.25 -11.722656 5.125 -9.671875 L 14.96875 -9.671875 C 14.925781 -11.703125 14.46875 -13.210938 13.59375 -14.203125 C 12.726562 -15.203125 11.613281 -15.703125 10.25 -15.703125 Z M 10.25 -15.703125 "/></g></g></g><g fill="#050a30" fill-opacity="1"><g transform="translate(250.849349, 242.704363)"><g><path d="M 3.78125 0 L 3.78125 -1.71875 L 6.59375 -1.71875 L 6.59375 -15.578125 L 3.78125 -15.578125 L 3.78125 -17.3125 L 8.15625 -17.3125 L 8.53125 -13.15625 C 9.21875 -14.5625 10.035156 -15.660156 10.984375 -16.453125 C 11.929688 -17.253906 13.210938 -17.65625 14.828125 -17.65625 C 15.285156 -17.65625 15.691406 -17.617188 16.046875 -17.546875 C 16.398438 -17.484375 16.773438 -17.40625 17.171875 -17.3125 L 16.59375 -15.375 C 16.207031 -15.488281 15.867188 -15.566406 15.578125 -15.609375 C 15.296875 -15.660156 14.96875 -15.6875 14.59375 -15.6875 C 13.195312 -15.6875 12.007812 -15.210938 11.03125 -14.265625 C 10.050781 -13.316406 9.253906 -11.816406 8.640625 -9.765625 L 8.640625 -1.71875 L 12.203125 -1.71875 L 12.203125 0 Z M 14.96875 -11.875 L 14.96875 -15.25 L 15.09375 -17.3125 L 17.171875 -17.3125 L 16.953125 -11.875 Z M 14.96875 -11.875 "/></g></g></g><g fill="#050a30" fill-opacity="1"><g transform="translate(267.130796, 242.704363)"><g><path d="M 4.140625 -19.40625 L 16.75 -11.625 L 16.75 -9.046875 L 4.3125 -1.25 L 3.078125 -2.859375 L 15 -10.296875 L 3.078125 -17.796875 Z M 4.140625 -19.40625 "/></g></g></g></svg>