<?xml version="1.0" standalone="no"?>
<!DOCTYPE svg PUBLIC "-//W3C//DTD SVG 20010904//EN"
 "http://www.w3.org/TR/2001/REC-SVG-20010904/DTD/svg10.dtd">
<svg version="1.0" xmlns="http://www.w3.org/2000/svg"
 width="700.000000pt" height="700.000000pt" viewBox="0 0 700.000000 700.000000"
 preserveAspectRatio="xMidYMid meet">
<metadata>
Created by potrace 1.14, written by Peter Selinger 2001-2017
</metadata>
<g transform="translate(0.000000,700.000000) scale(0.100000,-0.100000)"
fill="#000000" stroke="none">
<path d="M1182 5423 c-147 -30 -242 -117 -292 -267 -40 -121 -43 -261 -13
-636 9 -115 9 -326 1 -395 -33 -258 -133 -422 -313 -511 -66 -32 -85 -37 -169
-42 -104 -5 -121 -14 -132 -69 -9 -45 12 -59 81 -56 190 7 393 -148 477 -365
53 -136 68 -249 63 -477 -2 -110 -7 -211 -10 -225 -3 -14 -8 -117 -11 -230 -5
-222 5 -298 46 -381 43 -85 137 -159 221 -174 18 -3 36 -8 41 -11 5 -3 73 -5
151 -4 78 1 177 2 220 1 72 0 80 2 103 26 30 33 32 71 2 82 -11 4 -109 6 -217
4 -206 -3 -243 2 -329 46 -55 28 -106 91 -128 159 -16 48 -19 87 -18 237 0 99
3 218 7 265 12 152 16 453 7 523 -36 266 -151 460 -339 569 l-44 26 43 27 c55
34 149 128 188 186 81 121 132 273 150 449 11 116 3 449 -13 531 -3 13 -6 101
-6 194 -1 231 15 294 88 354 67 55 121 64 364 63 211 -1 217 -1 236 21 24 26
36 77 19 83 -30 12 -415 9 -474 -3z"/>
<path d="M5342 5425 c-10 -16 -9 -28 5 -57 22 -46 39 -49 251 -46 228 2 291
-7 354 -55 48 -37 74 -79 89 -145 11 -46 14 -333 5 -402 -12 -81 -20 -265 -19
-405 3 -348 111 -603 318 -751 l66 -47 -48 -27 c-161 -93 -286 -285 -320 -495
-3 -16 -9 -50 -14 -75 -8 -43 -4 -411 5 -495 15 -127 21 -380 12 -445 -13 -86
-48 -161 -97 -207 -13 -12 -51 -34 -84 -50 l-60 -28 -225 0 c-124 0 -231 -4
-237 -8 -21 -13 -15 -52 12 -81 23 -25 30 -26 102 -25 43 1 139 1 213 0 74 -1
142 0 150 2 8 2 31 7 50 11 133 31 230 142 259 296 11 59 7 402 -6 530 -10 96
-10 388 0 460 10 74 52 210 83 267 34 64 100 148 143 182 100 79 187 113 300
116 82 2 98 14 86 63 -12 50 -32 62 -104 62 -237 1 -431 175 -491 443 -30 138
-32 398 -4 662 11 102 5 353 -9 421 -37 171 -133 280 -284 322 -68 18 -490 24
-501 7z"/>
<path d="M2927 4288 c-9 -29 -29 -96 -46 -148 -122 -392 -190 -607 -233 -745
-27 -88 -52 -173 -55 -188 l-5 -28 118 3 119 3 34 125 c18 69 35 127 38 130 3
3 87 5 187 6 l183 0 11 -30 c9 -26 29 -96 37 -131 1 -5 8 -31 15 -57 l12 -48
125 0 c107 0 124 2 119 15 -7 19 -12 19 59 -6 40 -15 93 -23 160 -27 233 -11
388 84 452 276 13 39 16 117 18 475 l3 427 -294 0 -294 0 0 -84 c0 -72 3 -85
18 -89 9 -3 86 -4 170 -3 91 1 156 -2 159 -8 10 -15 9 -575 0 -631 -30 -176
-201 -239 -392 -144 -64 32 -61 32 -91 -17 -13 -22 -16 -11 -219 641 -25 83
-60 192 -76 243 l-31 92 -142 0 -143 0 -16 -52z m202 -298 c17 -63 46 -172 65
-242 l34 -128 -145 0 c-133 0 -144 1 -139 18 6 21 67 252 71 272 2 8 18 66 35
129 16 62 30 116 31 120 1 3 5 -7 9 -24 5 -16 22 -82 39 -145z"/>
<path d="M2195 2858 c-27 -57 -84 -175 -127 -263 -43 -87 -78 -165 -78 -172 0
-7 6 -13 13 -13 11 0 261 494 269 532 2 6 -4 13 -13 15 -11 3 -29 -25 -64 -99z"/>
<path d="M3520 2922 c-5 -2 -10 -10 -10 -18 0 -10 14 -14 50 -14 l50 0 0 -190
c0 -182 1 -190 22 -210 12 -11 29 -21 37 -21 9 -1 25 -3 36 -4 30 -3 67 13 63
27 -3 8 -21 11 -49 9 -70 -4 -71 0 -71 224 0 111 -4 196 -9 196 -23 3 -110 4
-119 1z"/>
<path d="M2315 2891 c-3 -2 -5 -98 -5 -213 l0 -208 61 0 c157 0 222 72 214
237 -6 114 -62 176 -165 182 -25 2 -57 4 -73 5 -15 1 -30 0 -32 -3z m171 -56
c33 -22 54 -72 56 -137 4 -133 -34 -185 -144 -194 l-47 -4 -3 83 c-2 45 -2
126 0 179 l3 97 55 -4 c31 -2 67 -11 80 -20z"/>
<path d="M1817 2758 c-105 -64 -117 -74 -117 -99 0 -16 4 -29 8 -29 5 0 57
-31 117 -69 102 -65 124 -72 125 -40 0 3 -45 34 -100 68 -54 34 -102 66 -104
70 -3 5 42 37 99 72 97 59 118 80 97 93 -5 3 -61 -27 -125 -66z"/>
<path d="M5054 2815 c-4 -9 -5 -17 -3 -19 2 -1 50 -31 107 -67 56 -35 102 -66
102 -69 0 -3 -48 -34 -106 -69 -72 -44 -103 -69 -99 -78 3 -8 5 -17 5 -20 0
-5 42 20 158 94 114 75 113 81 -30 169 -135 83 -127 79 -134 59z"/>
<path d="M2683 2781 c-51 -32 -76 -92 -70 -168 6 -78 39 -127 95 -143 59 -15
146 9 139 39 -4 18 -8 18 -53 0 -65 -25 -127 8 -139 74 -6 32 0 34 118 32 l97
-1 0 38 c0 46 -20 96 -47 120 -31 29 -102 33 -140 9z m135 -59 c6 -9 12 -28
12 -44 l0 -28 -90 0 -90 0 6 28 c10 45 32 71 67 80 34 10 69 -4 95 -36z"/>
<path d="M3153 2792 c-7 -4 -33 -68 -59 -142 -25 -74 -47 -136 -49 -138 -3 -3
-95 255 -95 268 0 5 -11 10 -25 10 l-24 0 26 -67 c14 -38 40 -108 58 -158 28
-76 36 -90 57 -93 22 -3 27 8 81 154 53 146 60 185 30 166z"/>
<path d="M3303 2786 c-50 -23 -84 -83 -84 -150 0 -123 76 -193 181 -165 48 13
62 23 54 42 -5 15 -9 15 -34 2 -62 -32 -126 -13 -150 44 -21 52 -13 57 105 56
l107 0 -5 46 c-9 82 -42 125 -102 134 -25 3 -52 0 -72 -9z m93 -34 c20 -14 44
-57 44 -79 0 -22 -3 -23 -90 -23 -75 0 -90 3 -90 15 0 24 28 73 47 84 21 12
73 14 89 3z"/>
<path d="M3914 2793 c-27 -5 -68 -50 -81 -88 -17 -51 -9 -149 15 -182 31 -44
44 -52 89 -57 52 -5 94 14 124 55 20 28 24 46 24 109 -1 130 -55 182 -171 163z
m110 -66 c21 -29 29 -124 13 -170 -30 -89 -164 -67 -169 27 -5 116 11 160 65
174 40 11 66 2 91 -31z"/>
<path d="M4225 2784 c-16 -8 -33 -21 -37 -27 -6 -9 -8 -8 -9 3 -1 8 -1 18 0
23 0 4 -8 7 -18 7 -18 0 -19 -10 -20 -224 0 -205 2 -224 17 -222 14 2 18 17
20 81 3 76 3 77 22 60 26 -24 99 -25 134 -2 38 25 56 74 56 152 0 87 -19 132
-64 150 -45 19 -64 19 -101 -1z m92 -36 c41 -33 42 -181 2 -224 -32 -35 -105
-29 -131 10 -12 17 -9 165 3 187 21 41 91 55 126 27z"/>
<path d="M4510 2782 c-74 -41 -101 -175 -51 -255 38 -62 135 -82 199 -41 18
12 21 18 12 29 -9 11 -15 11 -38 -1 -29 -15 -63 -18 -99 -8 -26 7 -67 82 -53
99 5 6 47 10 105 10 93 0 113 5 109 33 -1 6 -2 25 -3 40 0 17 -15 44 -33 65
-42 47 -96 57 -148 29z m100 -32 c22 -12 40 -41 46 -76 4 -24 4 -24 -84 -24
-49 0 -91 3 -95 6 -9 9 20 75 41 90 21 16 66 18 92 4z"/>
<path d="M4768 2792 c-30 -6 -21 -32 10 -32 l28 0 -2 -112 c-2 -155 0 -148
-29 -148 -16 0 -25 -6 -25 -15 0 -12 16 -15 80 -15 63 0 80 3 80 14 0 9 -12
16 -32 18 l-33 3 0 74 c-1 82 18 138 56 165 45 31 70 13 60 -46 0 -5 8 -8 18
-8 15 0 20 9 23 46 4 55 -9 69 -60 61 -25 -4 -48 -18 -69 -42 l-33 -35 0 28
c0 44 -19 55 -72 44z"/>
</g>
</svg>
